<?xml version="1.0" encoding="utf-8"?>
<!-- Generator: Adobe Illustrator 15.0.0, SVG Export Plug-In . SVG Version: 6.00 Build 0)  -->
<!DOCTYPE svg PUBLIC "-//W3C//DTD SVG 1.1//EN" "http://www.w3.org/Graphics/SVG/1.1/DTD/svg11.dtd">
<svg version="1.1" id="レイヤー_1" xmlns="http://www.w3.org/2000/svg" xmlns:xlink="http://www.w3.org/1999/xlink" x="0px"
	 y="0px" width="30px" height="30px" viewBox="0 0 30 30" enable-background="new 0 0 30 30" xml:space="preserve">
<g>
	<g>
		<g>
			<g>
				<path fill="#464646" d="M9.887,20.31v8.277H5.104V20.31H9.887 M10.991,19.205H4v10.486h6.991V19.205L10.991,19.205z"/>
			</g>
			<g>
				<path fill="#464646" d="M19.896,12.086l-1.717,4.684l-0.544,1.484h1.581h5.437l-1.613,8.071h-9.298v-8.729l5.326-5.51H19.896
					 M21.477,10.981h-2.878l-5.962,6.168v10.28h11.308L26,17.149h-6.784L21.477,10.981L21.477,10.981z"/>
			</g>
		</g>
	</g>
	<g>
		<polygon fill="#464646" points="12.424,4.367 12.424,4.368 9.286,4.368 15.001,10.309 20.715,4.368 20.715,4.368 17.578,4.368 
			17.578,4.367 17.578,4.367 17.578,4.367 17.578,0.309 12.424,0.309 		"/>
	</g>
</g>
</svg>
