<?xml version="1.0" encoding="utf-8"?>
<!-- Generator: Adobe Illustrator 15.0.0, SVG Export Plug-In . SVG Version: 6.00 Build 0)  -->
<!DOCTYPE svg PUBLIC "-//W3C//DTD SVG 1.1//EN" "http://www.w3.org/Graphics/SVG/1.1/DTD/svg11.dtd">
<svg version="1.1" id="レイヤー_1" xmlns="http://www.w3.org/2000/svg" xmlns:xlink="http://www.w3.org/1999/xlink" x="0px"
	 y="0px" width="64px" height="64px" viewBox="0 0 64 64" enable-background="new 0 0 64 64" xml:space="preserve">
<path fill="#000000" d="M15.778,49.088c-0.076,0.041-0.159,0.076-0.237,0.119c-3.697,1.973-7.911,3.102-12.396,3.102
	c-1.073,0-2.11-0.075-3.145-0.191c5.81,3.74,12.713,5.907,20.137,5.907c24.163,0,37.376-20.021,37.376-37.378
	c0-0.575,0-1.131-0.039-1.706c2.557-1.83,4.769-4.136,6.526-6.744c-0.443,0.18-0.893,0.341-1.341,0.5
	c-1.959,0.736-4.021,1.259-6.161,1.508c0.022-0.015,0.043-0.036,0.065-0.049c-0.022,0.002-0.045,0.008-0.071,0.01
	c0.557-0.313,1.057-0.695,1.551-1.085c1.931-1.575,3.428-3.678,4.21-6.106c-0.457,0.258-0.921,0.488-1.39,0.721
	c-2.157,1.116-4.483,1.955-6.937,2.441c-2.397-2.569-5.812-4.16-9.589-4.16c-7.25,0-13.137,5.835-13.137,13.085
	c0,1.036,0.116,0.939,0.345,2.939c-0.013,0-0.026,0-0.039,0c0.002,0,0.002,0.058,0.004,0.062c-0.13-0.005-0.255-0.006-0.382-0.014
	c-10.752-0.648-20.271-5.826-26.65-13.655c-0.165,0.27-0.293,0.563-0.437,0.842c-0.854,1.742-1.358,3.692-1.358,5.753
	c0,4.563,2.321,8.571,5.85,10.932c-0.022,0-0.047-0.005-0.071-0.007c0.019,0.014,0.033,0.028,0.051,0.039
	c-0.455-0.027-0.688-0.083-1.135-0.152C5.731,25.579,3,25.059,3,24.291v0.153c0,6.368,4.311,11.68,10.332,12.888
	c-0.024,0.007-0.162,0.009-0.188,0.017c0.024,0.004-0.006,0.015,0.017,0.021c-0.307,0.065-0.647,0.104-0.961,0.155
	c-0.82,0.159-1.668,0.268-2.542,0.268c-0.835,0-1.658-0.076-2.456-0.227c0.208,0.659,0.459,1.295,0.761,1.899
	c2.139,4.212,6.472,7.122,11.483,7.207c-0.015,0.011-0.033,0.022-0.048,0.033c0.015,0,0.03,0.004,0.046,0.004
	c-0.952,0.73-1.951,1.375-2.974,1.967C16.241,48.813,16.017,48.956,15.778,49.088z"/>
</svg>
