<?xml version="1.0" encoding="utf-8"?>
<!-- Generator: Adobe Illustrator 15.0.0, SVG Export Plug-In . SVG Version: 6.00 Build 0)  -->
<!DOCTYPE svg PUBLIC "-//W3C//DTD SVG 1.1//EN" "http://www.w3.org/Graphics/SVG/1.1/DTD/svg11.dtd">
<svg version="1.1" id="レイヤー_1" xmlns="http://www.w3.org/2000/svg" xmlns:xlink="http://www.w3.org/1999/xlink" x="0px"
	 y="0px" width="30px" height="30px" viewBox="0 0 30 30" enable-background="new 0 0 30 30" xml:space="preserve">
<g>
	<path fill="#FFFFFF" d="M26.649,14.859L16.011,25.497c-0.686,0.685-1.472,1.194-2.313,1.537c-1.261,0.511-2.646,0.64-3.97,0.384
		c-1.324-0.257-2.581-0.894-3.609-1.921c-0.685-0.685-1.195-1.472-1.537-2.313c-0.511-1.262-0.64-2.646-0.383-3.97
		c0.257-1.324,0.894-2.582,1.92-3.61L18.021,3.702c0.418-0.417,0.896-0.728,1.407-0.935c0.769-0.312,1.613-0.391,2.419-0.234
		c0.806,0.157,1.57,0.544,2.197,1.169c0.418,0.418,0.728,0.897,0.936,1.409c0.313,0.768,0.39,1.612,0.233,2.418
		c-0.155,0.807-0.543,1.568-1.169,2.196L12.495,21.273c-0.148,0.147-0.314,0.256-0.494,0.329c-0.268,0.108-0.566,0.137-0.85,0.081
		c-0.284-0.055-0.548-0.188-0.771-0.41c-0.148-0.148-0.255-0.314-0.328-0.493c-0.109-0.269-0.137-0.567-0.082-0.85
		c0.055-0.284,0.188-0.549,0.41-0.771L20.666,8.875L18.93,7.14L8.646,17.425c-0.383,0.383-0.674,0.83-0.867,1.307
		c-0.29,0.715-0.361,1.493-0.217,2.239c0.144,0.744,0.509,1.464,1.084,2.038c0.384,0.384,0.831,0.675,1.307,0.868
		c0.716,0.29,1.492,0.361,2.239,0.216c0.745-0.143,1.465-0.508,2.039-1.084L25.779,11.46c0.653-0.652,1.146-1.412,1.476-2.22
		c0.491-1.215,0.613-2.539,0.368-3.808c-0.245-1.269-0.863-2.486-1.844-3.467c-0.653-0.652-1.413-1.146-2.222-1.474
		C22.343,0,21.021-0.123,19.75,0.123c-1.268,0.246-2.485,0.864-3.465,1.843L4.383,13.869c-0.92,0.919-1.614,1.988-2.076,3.126
		c-0.693,1.708-0.865,3.572-0.52,5.359c0.345,1.786,1.214,3.498,2.595,4.878c0.92,0.921,1.988,1.614,3.126,2.076
		c1.708,0.691,3.573,0.864,5.358,0.519c1.787-0.345,3.499-1.214,4.879-2.595l10.638-10.639L26.649,14.859z"/>
</g>
</svg>
