<?xml version="1.0" encoding="utf-8"?>
<!-- Generator: Adobe Illustrator 15.0.0, SVG Export Plug-In . SVG Version: 6.00 Build 0)  -->
<!DOCTYPE svg PUBLIC "-//W3C//DTD SVG 1.1//EN" "http://www.w3.org/Graphics/SVG/1.1/DTD/svg11.dtd">
<svg version="1.1" id="レイヤー_1" xmlns="http://www.w3.org/2000/svg" xmlns:xlink="http://www.w3.org/1999/xlink" x="0px"
	 y="0px" width="64px" height="64px" viewBox="0 0 64 64" enable-background="new 0 0 64 64" xml:space="preserve">
<path fill="#FFFFFF" d="M26,34.271v0.087V64h-0.354H37v-1.045V35h0.254h0.031h9.593l1.44-11.099L47.171,24H37v-1.002v-0.021v-7.111
	C37,12.631,38.13,10,42.787,10H48V0.389c0-0.146-4.2-0.453-8.289-0.453c-3.706,0-6.724,0.983-9.163,2.873
	c-0.031,0.025,0.026,0.046-0.004,0.071c-0.264,0.208-0.465,0.436-0.711,0.667c-0.09,0.085-0.162,0.165-0.25,0.252
	c-0.201,0.2-0.375,0.416-0.562,0.631c-0.11,0.129-0.222,0.252-0.328,0.386c-0.176,0.22-0.333,0.457-0.494,0.691
	c-0.095,0.139-0.195,0.271-0.287,0.415c-0.186,0.297-0.357,0.611-0.523,0.931c-0.044,0.086,0.083,0.167,0.041,0.253
	C26.391,9.22,26,11.782,26,14.766V24H16v11h10V34.271z"/>
</svg>
