<?xml version="1.0" encoding="utf-8"?>
<!-- Generator: Adobe Illustrator 15.0.0, SVG Export Plug-In . SVG Version: 6.00 Build 0)  -->
<!DOCTYPE svg PUBLIC "-//W3C//DTD SVG 1.1//EN" "http://www.w3.org/Graphics/SVG/1.1/DTD/svg11.dtd">
<svg version="1.1" id="レイヤー_1" xmlns="http://www.w3.org/2000/svg" xmlns:xlink="http://www.w3.org/1999/xlink" x="0px"
	 y="0px" width="30px" height="30px" viewBox="0 0 30 30" enable-background="new 0 0 30 30" xml:space="preserve">
<g>
	<g>
		<g>
			<g>
				<path fill="#464646" d="M11.769,9.768c1.992,0,3.613,1.621,3.613,3.612s-1.621,3.612-3.613,3.612
					c-1.992,0-3.612-1.621-3.612-3.612S9.777,9.768,11.769,9.768 M11.769,8.567c-2.658,0-4.812,2.154-4.812,4.813
					s2.154,4.813,4.812,4.813c2.658,0,4.813-2.154,4.813-4.813S14.427,8.567,11.769,8.567L11.769,8.567z"/>
			</g>
			<g>
				<path fill="#464646" d="M14.692,20.528c2.172,0,3.94,1.768,3.94,3.939v0.412H4.907v-0.412c0-2.172,1.768-3.939,3.94-3.939
					H14.692 M14.692,19.328H8.847c-2.827,0-5.14,2.313-5.14,5.14v1.36c0,0.085,0.002,0.169,0.006,0.252h16.113
					c0.004-0.083,0.006-0.167,0.006-0.252v-1.36C19.832,21.641,17.52,19.328,14.692,19.328L14.692,19.328z"/>
			</g>
			<g>
				<path fill="#464646" d="M18.23,5.12c1.992,0,3.612,1.621,3.612,3.612c0,1.69-1.166,3.112-2.736,3.505
					c-0.358-2.341-1.807-4.355-3.903-5.442C15.854,5.774,16.989,5.12,18.23,5.12 M18.23,3.92c-2.205,0-4.044,1.492-4.614,3.516
					c2.533,0.788,4.376,3.155,4.376,5.943c0,0.048-0.007,0.094-0.008,0.142c0.083,0.004,0.161,0.024,0.245,0.024
					c2.658,0,4.813-2.154,4.813-4.813S20.889,3.92,18.23,3.92L18.23,3.92z"/>
			</g>
			<g>
				<path fill="#464646" d="M21.152,15.881c2.173,0,3.94,1.768,3.94,3.939v0.413H21.16c-0.797-1.222-1.899-2.179-3.188-2.784
					c0.323-0.489,0.586-1.015,0.784-1.568H21.152 M21.152,14.681h-3.299c-0.284,1.319-0.987,2.484-1.963,3.351
					c1.999,0.371,3.666,1.66,4.584,3.402h5.813c0.004-0.085,0.006-0.168,0.006-0.252V19.82
					C26.293,16.994,23.98,14.681,21.152,14.681L21.152,14.681z"/>
			</g>
		</g>
	</g>
</g>
</svg>
