<?xml version="1.0" encoding="utf-8"?>
<!-- Generator: Adobe Illustrator 15.0.0, SVG Export Plug-In . SVG Version: 6.00 Build 0)  -->
<!DOCTYPE svg PUBLIC "-//W3C//DTD SVG 1.1//EN" "http://www.w3.org/Graphics/SVG/1.1/DTD/svg11.dtd">
<svg version="1.1" id="レイヤー_1" xmlns="http://www.w3.org/2000/svg" xmlns:xlink="http://www.w3.org/1999/xlink" x="0px"
	 y="0px" width="45px" height="45px" viewBox="0 0 45 45" enable-background="new 0 0 45 45" xml:space="preserve">
<g>
	<g>
		<g>
			<path fill="#464646" d="M17.716,5.929c3.148,0,6.108,1.226,8.334,3.453c2.227,2.226,3.453,5.186,3.453,8.334
				s-1.227,6.108-3.453,8.335s-5.186,3.452-8.334,3.452c-3.149,0-6.109-1.226-8.335-3.452s-3.453-5.187-3.453-8.335
				s1.226-6.108,3.453-8.334S14.567,5.929,17.716,5.929 M17.716,2.44c-3.91,0-7.819,1.492-10.802,4.475
				c-5.966,5.965-5.966,15.638,0,21.603c2.983,2.983,6.893,4.475,10.802,4.475s7.819-1.491,10.801-4.475
				c5.967-5.965,5.967-15.638,0-21.603C25.535,3.932,21.626,2.44,17.716,2.44L17.716,2.44z"/>
		</g>
		
			<line fill="none" stroke="#464646" stroke-width="3.4887" stroke-miterlimit="10" x1="42.561" y1="42.56" x2="28.158" y2="28.157"/>
	</g>
</g>
</svg>
