<?xml version="1.0" encoding="utf-8"?>
<!-- Generator: Adobe Illustrator 15.0.0, SVG Export Plug-In . SVG Version: 6.00 Build 0)  -->
<!DOCTYPE svg PUBLIC "-//W3C//DTD SVG 1.1//EN" "http://www.w3.org/Graphics/SVG/1.1/DTD/svg11.dtd">
<svg version="1.1" id="レイヤー_1" xmlns="http://www.w3.org/2000/svg" xmlns:xlink="http://www.w3.org/1999/xlink" x="0px"
	 y="0px" width="30px" height="30px" viewBox="0 0 30 30" enable-background="new 0 0 30 30" xml:space="preserve">
<g>
	<g>
		<path fill="none" stroke="#464646" stroke-width="2" stroke-linecap="round" stroke-linejoin="round" stroke-miterlimit="10" d="
			M14.395,21.14l-1.992,1.991c-0.69,0.689-1.82,0.689-2.51,0l-1.039-1.04c-0.691-0.689-0.691-1.819,0-2.51l4.026-4.025
			c0.69-0.69,1.82-0.69,2.511,0l0.389,0.39"/>
		<path fill="none" stroke="#464646" stroke-width="2" stroke-linecap="round" stroke-linejoin="round" stroke-miterlimit="10" d="
			M15.607,12.828l1.991-1.991c0.69-0.691,1.82-0.691,2.511,0l1.039,1.039c0.69,0.691,0.69,1.821,0,2.511l-4.025,4.025
			c-0.69,0.69-1.821,0.69-2.511,0l-0.389-0.39"/>
	</g>
	<g>
		<g>
			<g>
				<path fill="#464646" d="M20.415,1.872l5.487,5.487v20.77H4.098V1.872H20.415 M21.19,0H2.227v30h25.547V6.583L21.19,0L21.19,0z"
					/>
			</g>
		</g>
		<polyline fill="none" stroke="#464646" stroke-width="1.8716" stroke-miterlimit="10" points="20.232,0 20.232,7.542 
			27.773,7.542 		"/>
	</g>
</g>
</svg>
