<?xml version="1.0" encoding="utf-8"?>
<!-- Generator: Adobe Illustrator 15.0.0, SVG Export Plug-In . SVG Version: 6.00 Build 0)  -->
<!DOCTYPE svg PUBLIC "-//W3C//DTD SVG 1.1//EN" "http://www.w3.org/Graphics/SVG/1.1/DTD/svg11.dtd">
<svg version="1.1" id="レイヤー_1" xmlns="http://www.w3.org/2000/svg" xmlns:xlink="http://www.w3.org/1999/xlink" x="0px"
	 y="0px" width="98.357px" height="98.357px" viewBox="0 0 98.357 98.357" enable-background="new 0 0 98.357 98.357"
	 xml:space="preserve">
<g>
	<circle fill="#FFFFFF" cx="49.178" cy="49.178" r="49.179"/>
	<path fill="#FF1E00" d="M49.179,8.431c-22.506,0-40.748,18.242-40.748,40.748c0,22.505,18.242,40.747,40.748,40.747
		c4.622,0,9.062-0.779,13.203-2.199c-2.177-12.652-10.818-18.472-10.818-18.472c-3.164-2.532-9.792-4.616-14.338-5.414
		c-8.693-1.524-15.633-2.729-17.39-7.778c-3.071-1.428-2.743-3.622-2.743-3.622s1.428-0.77,3.073-0.77
		c4.248-1.214,8.013-7.33,8.013-7.33l0.403-1.173c0,0,0.754,1.11,1.221,3.335c0.226,1.074,0.519,2.974,0.966,3.967
		c1.373,3.051,3.994,3.348,8.896,5.287c4.884,1.933,9.151,3.355,12.305-0.202c2.349-2.651,0.747-10.029-1.321-12.763
		c-1.907-2.517-3.368-3.295-6.508-4.627c-4.018-1.703-6.84-1.246-8.594-1.17s-4.881,1.907-4.881,1.907s4.756-5.757,7.062-7.075
		c2.305-1.315,11.133-5.055,11.133-5.055l-1.096-10.672c-0.086-0.836,0.686-1.515,1.504-1.319c6.731,1.603,10.785,6.97,10.785,6.97
		l2.156,2.984c0,0,9.952,3.828,19.396,7.145c0.255,4.595-2.552,12.506-2.552,12.506l10.73,1.53
		C88.122,24.939,70.584,8.431,49.179,8.431z M38.905,41.938c1.516,0,2.745,1.229,2.745,2.745c0,1.516-1.229,2.746-2.745,2.746
		c-1.517,0-2.746-1.23-2.746-2.746C36.159,43.167,37.389,41.938,38.905,41.938z M49.179,0C22.019,0,0,22.018,0,49.179
		c0,27.16,22.02,49.179,49.18,49.179S98.358,76.34,98.358,49.179C98.358,22.018,76.34,0,49.179,0z M49.179,94.424
		c-24.988,0-45.244-20.258-45.244-45.244c0-24.987,20.255-45.245,45.244-45.245c24.988,0,45.243,20.258,45.243,45.245
		C94.423,74.166,74.167,94.424,49.179,94.424z"/>
</g>
</svg>
