<?xml version="1.0" encoding="utf-8"?>
<!-- Generator: Adobe Illustrator 15.0.0, SVG Export Plug-In . SVG Version: 6.00 Build 0)  -->
<!DOCTYPE svg PUBLIC "-//W3C//DTD SVG 1.1//EN" "http://www.w3.org/Graphics/SVG/1.1/DTD/svg11.dtd">
<svg version="1.1" id="レイヤー_1" xmlns="http://www.w3.org/2000/svg" xmlns:xlink="http://www.w3.org/1999/xlink" x="0px"
	 y="0px" width="40px" height="42.956px" viewBox="0 0 40 42.956" enable-background="new 0 0 40 42.956" xml:space="preserve">
<path fill="#FF1E00" d="M39.998,9.874C39.998,9.871,40,9.868,40,9.865c-0.001-0.013-0.007-0.023-0.007-0.036
	c-0.005-0.095-0.022-0.187-0.05-0.274c-0.009-0.03-0.021-0.061-0.033-0.089c-0.03-0.075-0.068-0.145-0.113-0.21
	c-0.015-0.022-0.028-0.046-0.045-0.067c-0.063-0.078-0.133-0.15-0.216-0.211c-0.004-0.002-0.008-0.004-0.012-0.007
	c-0.015-0.01-0.031-0.016-0.046-0.025c-0.076-0.048-0.158-0.087-0.245-0.116c-0.015-0.005-0.026-0.015-0.041-0.02l-3.188-0.928
	c0.145-1.048,0.214-2.099,0.18-3.043l-0.136-1.357c-0.002-0.027-0.006-0.054-0.011-0.079c-0.091-0.481-0.208-0.883-0.356-1.226
	c-0.387-0.893-1.006-1.516-1.792-1.8c-1.246-0.451-2.718-0.508-4.585-0.11l-1.855,0.52c-1.59,0.541-2.971,1.237-3.813,1.703
	c-0.33-0.208-0.712-0.32-1.111-0.32h-5.122c-0.382,0-0.751,0.104-1.074,0.301c-0.836-0.46-2.21-1.15-3.81-1.694l-1.86-0.52
	c-1.759-0.371-3.299-0.33-4.547,0.121C5.325,0.661,4.705,1.283,4.318,2.174C4.173,2.509,4.055,2.913,3.967,3.372
	C3.962,3.399,3.958,3.426,3.954,3.453L3.813,4.876C3.78,5.788,3.851,6.827,3.996,7.881L0.807,8.809
	c-0.015,0.005-0.025,0.015-0.04,0.02c-0.088,0.029-0.17,0.068-0.246,0.116C0.506,8.955,0.49,8.96,0.476,8.97
	C0.472,8.973,0.467,8.975,0.463,8.977C0.38,9.038,0.311,9.11,0.248,9.187C0.23,9.209,0.218,9.233,0.202,9.255
	C0.157,9.321,0.119,9.39,0.089,9.464c-0.012,0.029-0.023,0.06-0.033,0.091C0.028,9.643,0.012,9.734,0.007,9.829
	C0.006,9.841,0,9.852,0,9.865c0,0.003,0.001,0.006,0.001,0.009C0.001,9.877,0,9.881,0,9.884v23.931c0,0.449,0.269,0.854,0.682,1.03
	l18.88,8.021c0.026,0.012,0.054,0.017,0.08,0.025c0.024,0.008,0.049,0.017,0.074,0.022c0.093,0.024,0.188,0.042,0.284,0.042l0,0
	c0.096,0,0.19-0.018,0.284-0.042c0.024-0.006,0.049-0.015,0.073-0.023c0.026-0.008,0.054-0.013,0.08-0.024l18.88-8.021
	C39.731,34.669,40,34.264,40,33.815V9.884C40,9.881,39.998,9.877,39.998,9.874z M21.119,40.143V16.915l3.884-1.279
	c0.932,1.656,1.633,3.119,2.068,4.334c0.031,0.088,0.082,0.163,0.131,0.24c-1.546,1.797-2.604,4.565-2.604,7.316
	c0,4.033,2.272,6.386,5.028,5.271c2.706-1.094,4.864-5.128,4.864-9.03c0-3.831-2.082-6.201-4.719-5.375l0.21-0.811l2.489,0.627
	c0.468,0.119,0.969-0.056,1.263-0.438c0.294-0.384,0.333-0.904,0.098-1.331c-0.041-0.073-0.844-1.513-1.878-2.979
	c0.449-0.03,0.862-0.112,1.232-0.246c0.406-0.145,0.759-0.362,1.068-0.627l3.506-1.154v21.641L21.119,40.143z M29.627,19.007
	c2.492-0.892,4.481,1.312,4.481,4.905c0,3.595-1.989,7.309-4.481,8.311c-2.534,1.019-4.62-1.146-4.62-4.853
	c0-2.585,1.017-5.188,2.49-6.837c0.146,0.107,0.317,0.172,0.499,0.206c-1.479,1.455-2.523,3.967-2.523,6.454
	c0,3.333,1.874,5.284,4.154,4.372c0.464-0.186,0.908-0.477,1.322-0.848c-0.218-1.755-1.083-2.264-1.083-2.264
	c-0.317-0.246-0.986-0.292-1.446-0.23c-0.884,0.117-1.593,0.214-1.772-0.461c-0.315-0.09-0.281-0.428-0.281-0.428
	s0.146-0.168,0.314-0.232c0.436-0.346,0.819-1.391,0.819-1.391l0.042-0.188c0,0,0.076,0.134,0.124,0.442
	c0.022,0.15,0.053,0.418,0.099,0.546c0.14,0.396,0.406,0.338,0.903,0.432c0.493,0.094,0.923,0.136,1.239-0.505
	c0.235-0.477,0.075-1.492-0.133-1.812c-0.191-0.296-0.338-0.354-0.654-0.431c-0.406-0.098-0.692,0.077-0.87,0.154
	s-0.496,0.466-0.496,0.466s0.483-1.026,0.718-1.306c0.232-0.28,1.123-1.156,1.123-1.156l-0.109-1.519
	c-0.009-0.119,0.068-0.247,0.15-0.248c0.676-0.011,1.081,0.622,1.081,0.622l0.215,0.355c0,0,0.989,0.19,1.921,0.325
	c0.025,0.653-0.252,1.901-0.252,1.901l1.055-0.178c-0.163-2.962-1.892-4.72-4.028-3.95c-0.069,0.024-0.138,0.06-0.207,0.089
	l0.191-0.738C29.617,19.011,29.622,19.01,29.627,19.007z M22.849,13.987L20,14.925l-2.769-0.912l-1.074-0.354
	c0.75-1.218,1.425-2.223,1.81-2.783h4.065c0.386,0.563,1.063,1.57,1.811,2.783L22.849,13.987z M8.996,9.896
	c1.855-0.24,4.228-0.243,5.816-0.208c-2.289,1.079-3.94,1.616-5.135,1.837c0,0,0,0-0.001,0c-0.047,0.009-0.093,0.017-0.139,0.024
	l-0.389,0.046c-0.794,0.093-1.301,0.044-1.721-0.104c-0.104-0.038-0.197-0.083-0.285-0.133c-0.068-0.04-0.118-0.098-0.178-0.146
	c-0.006-0.12,0.009-0.293,0.122-0.477c0.011-0.016,0.025-0.033,0.037-0.051C7.329,10.399,7.819,10.049,8.996,9.896z M17.127,5.229
	V4.261c0-0.041,0.012-0.081,0.03-0.117l0.067-0.065c0.037-0.036,0.098-0.077,0.178-0.077h5.122c0.07,0,0.133,0.026,0.186,0.08
	l0.059,0.059C22.787,4.177,22.8,4.218,22.8,4.261v0.946v1.167v2.408c0,0.139-0.104,0.248-0.237,0.268
	c-0.018-0.002-0.033-0.007-0.051-0.007h-5.024c-0.032,0-0.063,0.008-0.096,0.011c-0.146-0.004-0.265-0.124-0.265-0.271V6.395V5.229z
	 M32.874,10.684c0.009,0.012,0.021,0.024,0.028,0.035c0.126,0.196,0.139,0.383,0.13,0.51c-0.008,0.006-0.017,0.012-0.024,0.019
	c-0.049,0.037-0.099,0.074-0.15,0.108c-0.089,0.051-0.184,0.096-0.288,0.134c-0.422,0.151-0.929,0.197-1.72,0.105l-0.365-0.043
	c-0.052-0.008-0.105-0.019-0.159-0.028l0,0c-1.196-0.221-2.849-0.757-5.142-1.837c1.589-0.036,3.962-0.034,5.819,0.209
	C32.185,10.049,32.673,10.401,32.874,10.684z M28.222,12.216L28.222,12.216c0.145,0.048,0.298,0.103,0.438,0.145
	c0.215,0.189,0.436,0.422,0.657,0.674c0.029,0.033,0.058,0.063,0.087,0.096l0.347,0.438c0.104,0.13,0.204,0.268,0.306,0.402
	c0.535,0.715,1.039,1.479,1.425,2.099l-1.934-0.485c-0.044-0.012-0.089-0.016-0.133-0.021l-0.157-0.039
	c-0.33-0.085-0.649,0.113-0.733,0.434l-0.041,0.158c-0.017,0.041-0.034,0.082-0.046,0.126l-0.354,1.37
	c-0.362-0.791-0.8-1.649-1.305-2.562c-0.117-0.213-0.235-0.426-0.36-0.646l-0.204-0.348l-0.416-0.713
	c-0.057-0.093-0.111-0.182-0.167-0.273c-0.64-1.053-1.24-1.976-1.686-2.64C25.56,11.226,26.976,11.814,28.222,12.216z M14.37,13.071
	c-0.058,0.094-0.113,0.185-0.171,0.28l-0.413,0.706l-0.204,0.349l-0.003,0.005c-0.124,0.218-0.241,0.429-0.357,0.64
	c-0.504,0.912-0.942,1.771-1.305,2.563l-0.355-1.371c-0.007-0.026-0.023-0.046-0.032-0.071l-0.055-0.213
	c-0.084-0.321-0.407-0.519-0.733-0.434l-0.184,0.046c-0.035,0.004-0.071,0.004-0.107,0.014l-1.933,0.485
	c0.387-0.621,0.89-1.383,1.426-2.099c0.102-0.135,0.202-0.272,0.306-0.403l0.214-0.27l0.125-0.158
	c0.032-0.037,0.063-0.068,0.095-0.104c0.222-0.252,0.441-0.484,0.655-0.674c0.141-0.042,0.294-0.097,0.439-0.145l0,0
	c1.246-0.402,2.663-0.991,4.278-1.786C15.611,11.093,15.012,12.014,14.37,13.071z M10.608,19.867
	c0.013,0.049,0.041,0.088,0.06,0.133c-0.155-0.08-0.312-0.154-0.471-0.214c-2.317-0.861-4.179,1.06-4.179,4.284
	c0,3.223,1.861,6.576,4.179,7.496c0.479,0.19,0.939,0.261,1.371,0.226c-0.227-1.923-1.124-3.116-1.124-3.116
	c-0.327-0.494-1.012-1.063-1.48-1.359c-0.894-0.567-1.604-1.017-1.783-1.811c-0.313-0.327-0.28-0.629-0.28-0.629
	s0.146-0.054,0.313,0.011c0.435-0.008,0.82-0.739,0.82-0.739l0.041-0.152c0,0,0.078,0.189,0.126,0.528
	c0.022,0.163,0.053,0.448,0.099,0.608c0.142,0.494,0.41,0.641,0.915,1.115c0.504,0.474,0.945,0.851,1.271,0.462
	c0.243-0.289,0.077-1.421-0.137-1.898c-0.197-0.439-0.349-0.609-0.673-0.925c-0.414-0.403-0.705-0.448-0.886-0.507
	C8.61,23.322,8.29,23.463,8.29,23.463s0.488-0.644,0.726-0.743c0.237-0.101,1.149-0.295,1.149-0.295l-0.113-1.585
	c-0.01-0.124,0.07-0.192,0.155-0.133c0.697,0.493,1.118,1.429,1.118,1.429l0.225,0.517c0,0,1.039,0.947,2.028,1.805
	c0.026,0.678-0.269,1.718-0.269,1.718l1.129,0.656c-0.133-2.364-1.217-4.707-2.7-6.066c0.016,0,0.029,0.008,0.046,0.009
	c0.192,0,0.37-0.058,0.535-0.141c1.542,1.659,2.608,4.283,2.608,6.862c0,3.648-2.13,5.758-4.73,4.721
	c-2.571-1.024-4.636-4.747-4.636-8.322c0-3.576,2.064-5.711,4.636-4.758c0.085,0.031,0.167,0.073,0.25,0.11L10.608,19.867z
	 M8.854,24.511c0-0.219,0.126-0.347,0.282-0.287S9.42,24.51,9.42,24.728c0,0.219-0.127,0.348-0.283,0.288S8.854,24.731,8.854,24.511
	z M24.19,4.281c0.709-0.409,2.152-1.184,3.801-1.745l1.748-0.491c1.394-0.293,2.606-0.277,3.526,0.056
	c0.308,0.111,0.547,0.375,0.733,0.805c0.091,0.209,0.166,0.471,0.229,0.799l0.127,1.258c0.026,0.732-0.025,1.564-0.129,2.403
	c-0.047,0.376-0.104,0.747-0.173,1.116C34.02,8.663,33.99,8.849,33.95,9.027l-0.153,0.546L33.72,9.845
	c-0.138-0.16-0.301-0.306-0.488-0.437c-0.506-0.354-1.192-0.597-2.074-0.712c-0.197-0.025-0.4-0.047-0.605-0.068
	c-2.4-0.242-5.285-0.165-6.543-0.114V6.725V5.559V4.393V4.386L24.19,4.281z M15.919,4.415v1.166v1.166v1.766
	C14.624,8.46,11.803,8.39,9.447,8.628C9.242,8.65,9.039,8.671,8.842,8.697C7.96,8.812,7.273,9.054,6.768,9.409
	c-0.187,0.13-0.349,0.274-0.485,0.434L6.204,9.572l-0.146-0.51c-0.043-0.191-0.074-0.388-0.11-0.581
	C5.878,8.108,5.819,7.737,5.773,7.365C5.669,6.523,5.617,5.702,5.641,5l0.133-1.321C5.836,3.368,5.911,3.108,6,2.904
	C6.187,2.474,6.427,2.211,6.734,2.1c0.92-0.333,2.196-0.334,3.487-0.065l1.754,0.489c1.658,0.565,3.089,1.329,3.794,1.733
	l0.149,0.086V4.415z M2.629,11.561l3.112,1.025c0.311,0.265,0.663,0.483,1.07,0.63c0.37,0.132,0.783,0.214,1.233,0.244
	c-0.986,1.4-1.772,2.789-1.88,2.98c-0.234,0.423-0.196,0.944,0.1,1.332c0.291,0.376,0.817,0.55,1.261,0.436l2.49-0.627l0.265,1.022
	c-0.027-0.011-0.055-0.026-0.083-0.037c-2.794-1.031-5.034,1.29-5.034,5.174c0,3.883,2.24,7.927,5.034,9.044
	c2.828,1.131,5.146-1.16,5.146-5.13c0-2.713-1.084-5.474-2.672-7.284c0.107-0.116,0.201-0.246,0.257-0.402
	c0.436-1.214,1.138-2.679,2.067-4.333l3.884,1.279v23.229L2.239,33.074V11.433L2.629,11.561z M28.313,25.456
	c0-0.223,0.124-0.449,0.278-0.507c0.153-0.059,0.277,0.075,0.277,0.297s-0.124,0.449-0.277,0.508
	C28.437,25.811,28.313,25.678,28.313,25.456z"/>
</svg>
