<?xml version="1.0" encoding="utf-8"?>
<!-- Generator: Adobe Illustrator 15.0.0, SVG Export Plug-In . SVG Version: 6.00 Build 0)  -->
<!DOCTYPE svg PUBLIC "-//W3C//DTD SVG 1.1//EN" "http://www.w3.org/Graphics/SVG/1.1/DTD/svg11.dtd">
<svg version="1.1" id="レイヤー_1" xmlns="http://www.w3.org/2000/svg" xmlns:xlink="http://www.w3.org/1999/xlink" x="0px"
	 y="0px" width="49.786px" height="48px" viewBox="0 0 49.786 48" enable-background="new 0 0 49.786 48" xml:space="preserve">
<g>
	<polygon fill="#FFFFFF" points="22.581,0 27.111,7.848 27.111,7.848 22.581,0 0,13.038 0.001,13.038 	"/>
	<polygon fill="#FFFFFF" points="21.366,4.534 23.792,8.737 27.111,7.848 22.581,0 0.001,13.038 6.639,13.038 	"/>
	<rect x="32.293" y="1.094" fill="#FFFFFF" width="0" height="10.729"/>
	
		<rect x="7.458" y="10.888" transform="matrix(-0.9659 0.2588 -0.2588 -0.9659 33.8139 17.3237)" fill="#FFFFFF" width="16.617" height="0"/>
	<rect x="27.111" y="7.847" fill="#FFFFFF" width="0.001" height="0.001"/>
	
		<rect x="23.733" y="8.292" transform="matrix(-0.9659 0.2589 -0.2589 -0.9659 52.1824 9.7133)" fill="#FFFFFF" width="3.436" height="0"/>
	<polygon fill="#FFFFFF" points="28.83,10.822 35.128,9.136 36.173,13.038 39.609,13.038 37.475,5.07 27.112,7.848 	"/>
	<polygon fill="#FFFFFF" points="20.565,13.038 25.511,11.713 23.792,8.737 7.741,13.038 	"/>
	
		<rect x="26.253" y="9.334" transform="matrix(0.5001 0.866 -0.866 0.5001 22.0669 -19.5553)" fill="#FFFFFF" width="3.435" height="0.001"/>
	<polygon fill="#FFFFFF" points="25.511,11.713 28.83,10.822 27.111,7.848 23.792,8.737 	"/>
	<rect y="48" fill="#FFFFFF" width="46.033" height="0"/>
	<rect x="42.821" y="9.826" fill="#FFFFFF" width="0" height="6.424"/>
	<polygon fill="#FFFFFF" points="0,13.038 0,13.038 0,13.038 	"/>
	<polygon fill="#FFFFFF" points="0,13.038 0,13.038 0,13.038 	"/>
	<rect x="6.638" y="13.038" fill="#FFFFFF" width="1.103" height="0.001"/>
	<polygon fill="#FFFFFF" points="0.001,13.038 0,13.038 0,13.038 	"/>
	<polygon fill="#FFFFFF" points="6.639,13.038 0.001,13.038 0,13.038 0,13.038 6.638,13.038 	"/>
	<rect x="30.108" y="13.038" fill="#FFFFFF" width="6.064" height="0"/>
	<rect x="39.609" y="13.038" fill="#FFFFFF" width="0" height="0"/>
	<rect x="30.108" y="13.038" fill="#FFFFFF" width="0" height="0"/>
	<rect x="23.421" y="10.183" fill="#FFFFFF" width="0" height="5.711"/>
	<rect x="28.192" y="11.122" fill="#FFFFFF" width="0" height="3.832"/>
	<rect x="7.74" y="13.038" fill="#FFFFFF" width="0.002" height="0.001"/>
	<rect x="37.891" y="11.32" fill="#FFFFFF" width="0" height="3.437"/>
	<rect x="7.741" y="13.038" fill="#FFFFFF" width="12.824" height="0.001"/>
	<polygon fill="#FFFFFF" points="40.499,16.356 42.714,16.356 42.714,21.446 46.033,21.446 46.033,13.038 39.609,13.038 	"/>
	<polygon fill="#FFFFFF" points="42.714,44.681 3.318,44.681 3.318,18.785 0,13.038 0,48 46.033,48 46.033,39.591 42.714,39.591 	
		"/>
	<rect x="-1.659" y="15.912" transform="matrix(0.5 0.866 -0.866 0.5 14.6091 6.5184)" fill="#FFFFFF" width="6.636" height="0"/>
	<polygon fill="#FFFFFF" points="6.638,13.038 5.684,13.589 7.739,13.038 	"/>
	<polygon fill="#FFFFFF" points="2.538,14.432 2.538,14.432 2.538,14.432 5.684,13.589 6.638,13.038 0,13.038 3.318,18.785 
		3.318,17.345 	"/>
	<polygon fill="#FFFFFF" points="37.063,16.356 36.173,13.038 30.108,13.038 32.024,16.356 	"/>
	
		<rect x="38.336" y="14.697" transform="matrix(0.259 0.9659 -0.9659 0.259 43.8779 -27.7966)" fill="#FFFFFF" width="3.436" height="0"/>
	<rect x="31.066" y="12.781" fill="#FFFFFF" width="0" height="3.832"/>
	<polygon fill="#FFFFFF" points="26.276,13.038 20.564,13.038 8.18,16.356 28.192,16.356 	"/>
	<polygon fill="#FFFFFF" points="28.192,16.356 32.024,16.356 30.108,13.038 26.276,13.038 	"/>
	<rect x="2.928" y="14.38" fill="#FFFFFF" width="0" height="3.016"/>
	<rect x="6.711" y="12.249" fill="#FFFFFF" width="0.001" height="2.128"/>
	
		<rect x="2.483" y="14.01" transform="matrix(0.9659 -0.2588 0.2588 0.9659 -3.4858 1.5412)" fill="#FFFFFF" width="3.256" height="0"/>
	<polygon fill="#FFFFFF" points="37.063,16.356 40.499,16.356 39.609,13.038 36.173,13.038 	"/>
	<polygon fill="#FFFFFF" points="20.564,13.038 7.74,13.038 5.684,13.589 4.533,14.253 5.748,16.356 8.18,16.356 	"/>
	<polygon fill="#FFFFFF" points="3.318,16.356 5.748,16.356 4.533,14.253 5.684,13.589 2.538,14.432 3.318,17.345 	"/>
	<rect x="46.033" y="24.766" fill="#FFFFFF" width="3.753" height="11.506"/>
	<path fill="#FFFFFF" d="M40.326,32.617c-0.385,0.244-0.838,0.392-1.327,0.392c-0.033,0-0.063-0.009-0.095-0.01l-6.128,1.642v1.631
		h9.938v-4.294L40.326,32.617z"/>
	
		<rect x="40.284" y="32.297" transform="matrix(-0.9659 0.2588 -0.2588 -0.9659 89.9834 52.7506)" fill="#FFFFFF" width="2.472" height="0"/>
	
		<rect x="32.668" y="33.82" transform="matrix(0.9659 -0.2588 0.2588 0.9659 -7.5307 10.4261)" fill="#FFFFFF" width="6.344" height="0"/>
	<path fill="#FFFFFF" d="M32.776,25.691v5.512l3.766-1.008c0.16-1.221,1.192-2.167,2.457-2.167c0.474,0,0.913,0.141,1.29,0.371
		l-0.974-3.634H34.38L32.776,25.691z"/>
	<rect x="33.578" y="24.303" fill="#FFFFFF" width="0" height="1.852"/>
	<polygon fill="#FFFFFF" points="32.776,24.766 32.776,25.691 34.379,24.766 	"/>
	<path fill="#FFFFFF" d="M39.315,24.766l0.974,3.634c0.716,0.438,1.199,1.219,1.199,2.119c0,0.885-0.466,1.657-1.161,2.099
		l2.387-0.64v-7.212H39.315z"/>
	<path fill="#FFFFFF" d="M36.509,30.519c0-0.111,0.02-0.217,0.033-0.323l-3.766,1.008v3.438l6.128-1.642
		C37.574,32.948,36.509,31.861,36.509,30.519z"/>
	<polygon fill="#FFFFFF" points="42.714,31.978 42.714,36.271 46.033,36.271 46.033,24.766 42.752,24.766 44.552,31.485 	"/>
	<polygon fill="#FFFFFF" points="44.552,31.485 42.714,31.978 42.714,31.978 44.552,31.485 42.752,24.766 42.752,24.766 	"/>
	<polygon fill="#FFFFFF" points="42.714,31.978 44.552,31.485 42.752,24.766 42.714,24.766 	"/>
</g>
</svg>
