<?xml version="1.0" encoding="utf-8"?>
<!-- Generator: Adobe Illustrator 15.0.0, SVG Export Plug-In . SVG Version: 6.00 Build 0)  -->
<!DOCTYPE svg PUBLIC "-//W3C//DTD SVG 1.1//EN" "http://www.w3.org/Graphics/SVG/1.1/DTD/svg11.dtd">
<svg version="1.1" id="レイヤー_1" xmlns="http://www.w3.org/2000/svg" xmlns:xlink="http://www.w3.org/1999/xlink" x="0px"
	 y="0px" width="35px" height="35px" viewBox="0 0 35 35" enable-background="new 0 0 35 35" xml:space="preserve">
<g>
	<g>
		<path fill="#464646" d="M8.843,17.5c0,1.36-1.114,2.475-2.475,2.475c-1.362,0-2.475-1.114-2.475-2.475s1.113-2.475,2.475-2.475
			C7.729,15.025,8.843,16.14,8.843,17.5z"/>
		<path fill="#464646" d="M19.976,17.5c0,1.36-1.114,2.475-2.475,2.475c-1.362,0-2.475-1.114-2.475-2.475s1.113-2.475,2.475-2.475
			C18.861,15.025,19.976,16.14,19.976,17.5z"/>
		<path fill="#464646" d="M31.106,17.5c0,1.36-1.114,2.475-2.477,2.475c-1.358,0-2.473-1.114-2.473-2.475s1.114-2.475,2.473-2.475
			C29.992,15.025,31.106,16.14,31.106,17.5z"/>
	</g>
</g>
</svg>
