<?xml version="1.0" encoding="utf-8"?>
<!-- Generator: Adobe Illustrator 15.0.0, SVG Export Plug-In . SVG Version: 6.00 Build 0)  -->
<!DOCTYPE svg PUBLIC "-//W3C//DTD SVG 1.1//EN" "http://www.w3.org/Graphics/SVG/1.1/DTD/svg11.dtd">
<svg version="1.1" id="レイヤー_1" xmlns="http://www.w3.org/2000/svg" xmlns:xlink="http://www.w3.org/1999/xlink" x="0px"
	 y="0px" width="45px" height="45px" viewBox="0 0 45 45" enable-background="new 0 0 45 45" xml:space="preserve">
<g>
	<g>
		<path fill="#464646" d="M22.5,44.5c2.737,0,4.956-2.219,4.956-4.956h-9.912C17.544,42.281,19.763,44.5,22.5,44.5z"/>
	</g>
	<g>
		<path fill="#464646" d="M21.825,12.83c0.222,0.022,0.448,0.034,0.676,0.034s0.453-0.012,0.675-0.034
			c0.498,0.667,1.21,1.167,2.04,1.398c2.223,0.62,5.263,2.26,6.01,9.323c0.435,4.12,1.617,7.118,2.888,9.236H10.901
			c1.262-2.113,2.437-5.108,2.874-9.236c0.747-7.063,3.788-8.704,6.01-9.323C20.615,13.997,21.327,13.498,21.825,12.83 M22.5,0.5
			c-3.162,0-5.734,2.572-5.734,5.734c0,1.725,0.782,3.257,1.991,4.309c-5.095,1.42-8.051,5.639-8.787,12.606
			C9.109,31.292,5.083,33.78,4.926,33.874c-0.579,0.329-0.862,1.005-0.693,1.648c0.17,0.644,0.751,1.092,1.417,1.092h33.701
			c0.665,0,1.247-0.448,1.416-1.092c0.17-0.644-0.114-1.319-0.693-1.648c-0.041-0.023-4.184-2.589-5.043-10.725
			c-0.736-6.968-3.692-11.187-8.787-12.606c1.209-1.052,1.99-2.584,1.99-4.309C28.233,3.072,25.662,0.5,22.5,0.5L22.5,0.5z
			 M22.5,9.038c-1.549,0-2.804-1.255-2.804-2.804c0-1.548,1.255-2.804,2.804-2.804c1.547,0,2.803,1.256,2.803,2.804
			C25.304,7.783,24.048,9.038,22.5,9.038L22.5,9.038z"/>
	</g>
</g>
</svg>
