<?xml version="1.0" encoding="utf-8"?>
<!-- Generator: Adobe Illustrator 15.0.0, SVG Export Plug-In . SVG Version: 6.00 Build 0)  -->
<!DOCTYPE svg PUBLIC "-//W3C//DTD SVG 1.1//EN" "http://www.w3.org/Graphics/SVG/1.1/DTD/svg11.dtd">
<svg version="1.1" id="レイヤー_1" xmlns="http://www.w3.org/2000/svg" xmlns:xlink="http://www.w3.org/1999/xlink" x="0px"
	 y="0px" width="45px" height="45px" viewBox="0 0 45 45" enable-background="new 0 0 45 45" xml:space="preserve">
<g>
	<g>
		<path fill="#464646" d="M40.936,8.75v27.5L16.969,24.786v-4.571L40.936,8.75 M40.938,5.056c-0.483,0-0.979,0.097-1.463,0.306
			L13.282,17.891v9.218l26.193,12.529c0.484,0.209,0.979,0.306,1.462,0.306c1.944,0,3.686-1.568,3.686-3.691V8.748
			C44.623,6.625,42.883,5.056,40.938,5.056L40.938,5.056z"/>
	</g>
	<g>
		<path fill="#464646" d="M5.753,32.23l7.529-5.121v-9.218L5.753,12.77c-2.454-1.265-5.376,0.517-5.376,3.277v12.906
			C0.377,31.714,3.299,33.495,5.753,32.23z"/>
	</g>
</g>
</svg>
