<?xml version="1.0" encoding="utf-8"?>
<!-- Generator: Adobe Illustrator 15.0.0, SVG Export Plug-In . SVG Version: 6.00 Build 0)  -->
<!DOCTYPE svg PUBLIC "-//W3C//DTD SVG 1.1//EN" "http://www.w3.org/Graphics/SVG/1.1/DTD/svg11.dtd">
<svg version="1.1" id="レイヤー_1" xmlns="http://www.w3.org/2000/svg" xmlns:xlink="http://www.w3.org/1999/xlink" x="0px"
	 y="0px" width="20px" height="20px" viewBox="0 0 20 20" enable-background="new 0 0 20 20" xml:space="preserve">
<g>
	<g>
		<g>
			<g>
				<g>
					<circle fill="#464646" cx="10" cy="8" r="8"/>
				</g>
				<polyline fill="#464646" points="9,11.389 9,20 14.955,14.194 				"/>
			</g>
		</g>
	</g>
	<g>
		<g>
			<g>
				<path fill="#FFFFFF" d="M11,8.479c0,0.549-0.451,1-1,1s-1-0.451-1-1s0.451-1,1-1S11,7.931,11,8.479z"/>
				<path fill="#FFFFFF" d="M14.25,8.479c0,0.549-0.451,1-1,1s-1-0.451-1-1s0.451-1,1-1S14.25,7.931,14.25,8.479z"/>
			</g>
		</g>
		<g>
			<g>
				<path fill="#FFFFFF" d="M7.75,8.479c0,0.549-0.451,1-1,1s-1-0.451-1-1s0.451-1,1-1S7.75,7.931,7.75,8.479z"/>
			</g>
		</g>
	</g>
</g>
</svg>
