<?xml version="1.0" encoding="utf-8"?>
<!-- Generator: Adobe Illustrator 15.0.0, SVG Export Plug-In . SVG Version: 6.00 Build 0)  -->
<!DOCTYPE svg PUBLIC "-//W3C//DTD SVG 1.1//EN" "http://www.w3.org/Graphics/SVG/1.1/DTD/svg11.dtd">
<svg version="1.1" id="レイヤー_1" xmlns="http://www.w3.org/2000/svg" xmlns:xlink="http://www.w3.org/1999/xlink" x="0px"
	 y="0px" width="20px" height="20px" viewBox="0 0 20 20" enable-background="new 0 0 20 20" xml:space="preserve">
<g>
	<g>
		<circle fill="#464646" cx="7.426" cy="8.709" r="3.835"/>
	</g>
	<g>
		<path fill="#464646" d="M9.755,13.449H5.097C2.844,13.449,1,15.292,1,17.546v1.084c0,0.066,0.002,0.134,0.005,0.2h12.841
			c0.004-0.066,0.006-0.134,0.006-0.2v-1.084C13.852,15.292,12.008,13.449,9.755,13.449z"/>
	</g>
	<g>
		<path fill="#464646" d="M12.386,8.708c0,0.038-0.006,0.074-0.007,0.111c0.066,0.004,0.129,0.021,0.195,0.021
			c2.118,0,3.836-1.718,3.836-3.836S14.692,1.17,12.574,1.17c-1.758,0-3.223,1.188-3.676,2.802
			C10.916,4.601,12.386,6.485,12.386,8.708z"/>
	</g>
	<g>
		<path fill="#464646" d="M14.904,9.745h-2.631c-0.226,1.052-0.786,1.98-1.563,2.67c1.592,0.297,2.921,1.323,3.653,2.711h4.632
			C18.998,15.06,19,14.993,19,14.926v-1.085C19,11.589,17.156,9.745,14.904,9.745z"/>
	</g>
</g>
</svg>
