<?xml version="1.0" encoding="utf-8"?>
<!-- Generator: Adobe Illustrator 15.0.0, SVG Export Plug-In . SVG Version: 6.00 Build 0)  -->
<!DOCTYPE svg PUBLIC "-//W3C//DTD SVG 1.1//EN" "http://www.w3.org/Graphics/SVG/1.1/DTD/svg11.dtd">
<svg version="1.1" id="レイヤー_1" xmlns="http://www.w3.org/2000/svg" xmlns:xlink="http://www.w3.org/1999/xlink" x="0px"
	 y="0px" width="20px" height="20px" viewBox="0 0 20 20" enable-background="new 0 0 20 20" xml:space="preserve">
<g>
	<g>
		<g>
			<g>
				<g>
					
						<rect x="14.633" y="5.85" transform="matrix(0.7071 -0.7071 0.7071 0.7071 0.3566 12.5602)" fill="#464646" width="1.414" height="0"/>
				</g>
				<g>
					<polygon fill="#464646" points="14.84,7.487 14.84,18 3.19,18 3.19,3.97 11.322,3.97 12.322,2.97 2.19,2.97 2.19,19 15.84,19 
						15.84,6.488 					"/>
				</g>
			</g>
			<g>
				<path fill="#464646" d="M15.43,2.101l1.279,1.278l-3.16,3.161L12.27,5.262L15.43,2.101 M15.43,1l-4.262,4.262l2.381,2.379
					l4.262-4.262L15.43,1L15.43,1z"/>
			</g>
			<g>
				<polygon fill="#464646" points="10.297,8.513 10.733,6.887 11.168,5.262 12.357,6.452 13.549,7.642 11.924,8.077 				"/>
			</g>
		</g>
	</g>
	<g>
		<rect x="4.746" y="7.642" fill-rule="evenodd" clip-rule="evenodd" fill="#464646" width="3.407" height="1.445"/>
	</g>
	<g>
		<rect x="4.746" y="10.74" fill-rule="evenodd" clip-rule="evenodd" fill="#464646" width="8.461" height="1.444"/>
	</g>
	<g>
		<rect x="4.746" y="13.839" fill-rule="evenodd" clip-rule="evenodd" fill="#464646" width="8.461" height="1.445"/>
	</g>
</g>
</svg>
