<?xml version="1.0" encoding="utf-8"?>
<!-- Generator: Adobe Illustrator 15.0.0, SVG Export Plug-In . SVG Version: 6.00 Build 0)  -->
<!DOCTYPE svg PUBLIC "-//W3C//DTD SVG 1.1//EN" "http://www.w3.org/Graphics/SVG/1.1/DTD/svg11.dtd">
<svg version="1.1" id="レイヤー_1" xmlns="http://www.w3.org/2000/svg" xmlns:xlink="http://www.w3.org/1999/xlink" x="0px"
	 y="0px" width="120px" height="29.528px" viewBox="0 0 120 29.528" enable-background="new 0 0 120 29.528" xml:space="preserve">
<g>
	<g>
		<path fill="#FF1E00" d="M93.824,0.007h-6.102c-0.52,0-0.955,0.392-1.01,0.909l-1.105,10.664l-0.166,1.723
			c0,0-0.314,4.435-3.783,4.435c-3.009,0-3.018-2.202-2.877-3.327l0.09-0.749L80.174,1.13c0.063-0.601-0.406-1.123-1.011-1.123
			h-6.101c-0.521,0-0.956,0.392-1.012,0.909l-1.723,16.259c0,0-0.013,0.079-0.029,0.215c1.019-0.217,1.894-0.321,2.762-0.321
			c0.99,0,1.99,0.131,3.057,0.402c1.766,0.449,3.107,1.257,4.527,2.111l0.592,0.354c1.062,0.63,1.256,0.644,1.899,0.69
			c0.085,0.006,0.169,0.008,0.253,0.008c0.277,0,1.014-0.093,1.074-0.105c0.35-0.077,0.74-0.129,0.988,0.196
			c0.203,0.269,0.072,0.882-0.053,1.194c-0.226,0.563-0.463,1.086-0.703,1.553c-0.244,0.473-0.986,1.914-2.453,3.395
			c-0.152,0.154-0.319,0.311-0.493,0.471h0.203c4.887,0,7.632-2.143,7.632-2.143c1.207-0.936,1.958-2.049,2.434-3.434
			c0.945-2.75,1.307-6.37,1.307-6.37L94.835,1.13C94.898,0.53,94.428,0.007,93.824,0.007z"/>
		<path fill="#FF1E00" d="M111.871,0.917l-1.108,10.469c-0.027,0.259-0.382,0.314-0.485,0.075l-4.74-10.844
			c-0.162-0.37-0.527-0.609-0.931-0.609h-6.565c-0.521,0-0.957,0.392-1.012,0.909l-2.68,25.299c-0.064,0.6,0.406,1.123,1.01,1.123
			h6.102c0.52,0,0.955-0.393,1.01-0.91l1.109-10.468c0.028-0.26,0.382-0.314,0.486-0.075l4.739,10.844
			c0.162,0.369,0.527,0.609,0.931,0.609h6.566c0.52,0,0.956-0.393,1.011-0.91l2.681-25.298c0.063-0.6-0.406-1.123-1.01-1.123h-6.102
			C112.363,0.007,111.927,0.399,111.871,0.917z"/>
		<path fill="#FF1E00" d="M82.572,22.472c-0.486-0.039-1.404-0.207-2.402-0.873c-1.453-0.968-2.879-1.86-4.58-2.294
			c-0.553-0.141-1.064-0.23-1.555-0.283c-1.598,0.157-2.775,1.636-3.103,4.219c-0.313,2.477,1.173,4.65,2.138,5.328
			c0,0-1.902,0.225-3.504-0.18c-0.297-0.076-0.656-0.359-0.85-0.598c-0.678-0.834-1.406-2.398-1.068-4.682
			c0.329-2.225,1.298-3.211,1.99-3.641c-1.133,0.229-2.071,0.291-2.945,0.136c-0.962,0.091-2.324,0.801-2.955,2.359
			c-0.664,1.642-0.37,3.033-0.039,4.027c-1.248-0.881-2.135-1.916-2.424-2.398c-0.135-0.225-0.176-0.477-0.174-0.738
			c0.004-0.593,0.154-1.57,0.839-2.506c0.896-1.225,2.195-1.601,2.518-1.678c-0.288-0.189-0.583-0.405-0.889-0.655
			c-0.649-0.53-1.157-1.22-1.562-1.96L69.619,5.98l0.618-5.973h-2.872c-0.318,0-0.619,0.149-0.812,0.404l-7.567,10.044
			c-0.155,0.206-0.482,0.076-0.455-0.18L59.5,1.13c0.063-0.6-0.407-1.123-1.011-1.123h-6.102c-0.52,0-0.956,0.392-1.011,0.909
			l-2.68,25.299c-0.064,0.6,0.406,1.123,1.01,1.123h6.102c0.52,0,0.955-0.393,1.01-0.91l0.418-3.938
			c0.01-0.092,0.044-0.178,0.1-0.252l1.182-1.563c0.297,0.787,0.655,1.538,1.08,2.244c0,0,3.443,5.547,9.48,6.377
			c1.379,0.189,2.813,0.305,4.208,0.182c6.126-0.543,8.839-5.295,9.49-6.643C82.854,22.675,82.75,22.485,82.572,22.472z"/>
		<path fill="#FF1E00" d="M45.574,0.764c-0.113-0.445-0.516-0.756-0.975-0.756H33.551c-0.459,0-0.86,0.311-0.975,0.756
			l-6.483,25.319c-0.163,0.637,0.317,1.256,0.975,1.256h6.068c0.46,0,0.86-0.313,0.974-0.758l1.529-5.967
			c0.113-0.445,0.515-0.757,0.975-0.757h4.924c0.46,0,0.861,0.312,0.975,0.757l1.529,5.969c0.113,0.443,0.515,0.756,0.975,0.756
			h1.742l1.645-15.529L45.574,0.764z M40.064,14.427h-1.978c-0.438,0-0.759-0.413-0.649-0.837l0.988-3.861
			c0.172-0.672,1.127-0.672,1.299,0l0.989,3.861C40.822,14.014,40.502,14.427,40.064,14.427z"/>
		<path fill="#FF1E00" d="M23.713,1.82c-2.288-2.032-6.328-1.813-6.328-1.813H3.689c-0.515,0-0.946,0.388-1,0.9L0.006,26.226
			c-0.063,0.596,0.403,1.113,1,1.113h6.122c0.515,0,0.946-0.389,1-0.9l0.802-7.566c0.04-0.377,0.384-0.646,0.76-0.593
			c1.251,0.173,3.116,0.478,4.588,0.914c2.443,0.724,2.292,4.163,2.292,4.163l0.114,3.014c0.021,0.541,0.464,0.969,1.005,0.969
			h5.377c0.571,0,1.027-0.475,1.006-1.045l-0.111-2.938c-0.12-1.93-0.701-2.403-1.355-2.927c-0.87-0.696-2.691-1.269-3.941-1.487
			c-2.389-0.42-4.295-0.751-4.778-2.139c-0.845-0.392-0.754-0.995-0.754-0.995s0.392-0.211,0.844-0.211
			c1.167-0.334,2.202-2.015,2.202-2.015l0.111-0.322c0,0,0.207,0.305,0.336,0.916c0.062,0.295,0.143,0.817,0.266,1.09
			c0.377,0.839,1.098,0.92,2.445,1.453c1.342,0.531,2.515,0.923,3.381-0.056c0.646-0.729,0.205-2.756-0.363-3.507
			c-0.523-0.692-0.926-0.906-1.789-1.271c-1.104-0.469-1.879-0.343-2.361-0.322c-0.481,0.021-1.341,0.524-1.341,0.524
			s1.307-1.582,1.94-1.944c0.633-0.362,3.06-1.389,3.06-1.389l-0.302-2.933c-0.023-0.23,0.189-0.416,0.414-0.362
			c1.85,0.44,2.964,1.916,2.964,1.916c0.271-0.724,0.29-1.394,0.29-1.394C25.375,4.076,24.71,2.706,23.713,1.82z M19.126,12.921
			c0.417,0,0.755,0.338,0.755,0.755s-0.338,0.754-0.755,0.754s-0.755-0.337-0.755-0.754S18.709,12.921,19.126,12.921z M16.877,9.057
			c-0.299,2.034-1.781,3.62-4.199,3.62h-2.256c-0.402,0-0.714-0.352-0.666-0.751l0.708-5.898c0.041-0.337,0.327-0.591,0.666-0.591
			h3.286C16.255,5.437,17.195,6.885,16.877,9.057z"/>
	</g>
</g>
</svg>
