<?xml version="1.0" encoding="utf-8"?>
<!-- Generator: Adobe Illustrator 15.0.0, SVG Export Plug-In . SVG Version: 6.00 Build 0)  -->
<!DOCTYPE svg PUBLIC "-//W3C//DTD SVG 1.1//EN" "http://www.w3.org/Graphics/SVG/1.1/DTD/svg11.dtd">
<svg version="1.1" id="レイヤー_1" xmlns="http://www.w3.org/2000/svg" xmlns:xlink="http://www.w3.org/1999/xlink" x="0px"
	 y="0px" width="39.913px" height="42.534px" viewBox="0 0 39.913 42.534" enable-background="new 0 0 39.913 42.534"
	 xml:space="preserve">
<g>
	<ellipse fill="#FF1E00" cx="19.957" cy="25.368" rx="19.957" ry="13.78"/>
	<ellipse fill="#FFFFFF" cx="19.957" cy="23.556" rx="19.957" ry="13.78"/>
	<ellipse fill="#FF1E00" cx="19.957" cy="21.728" rx="19.957" ry="13.78"/>
	<ellipse fill="#FFFFFF" cx="19.957" cy="20.035" rx="19.957" ry="13.78"/>
	<ellipse fill="#FF1E00" cx="19.957" cy="18.305" rx="19.957" ry="13.78"/>
	<ellipse fill="#FFFFFF" cx="19.957" cy="17.165" rx="19.957" ry="13.78"/>
	<g>
		<g>
			<g>
				<path fill="#FF1E00" d="M19.957,5.748c-9.133,0-16.536,5.112-16.536,11.418s7.403,11.418,16.536,11.418
					c1.876,0,3.677-0.219,5.357-0.617c-0.883-3.545-4.391-5.176-4.391-5.176c-1.284-0.71-3.974-1.293-5.817-1.517
					c-3.528-0.428-6.344-0.765-7.057-2.18c-1.247-0.399-1.113-1.015-1.113-1.015s0.579-0.216,1.247-0.216
					c1.724-0.34,3.251-2.054,3.251-2.054l0.164-0.328c0,0,0.307,0.311,0.495,0.934c0.091,0.301,0.211,0.833,0.392,1.111
					c0.558,0.855,1.621,0.938,3.611,1.481c1.981,0.542,3.713,0.94,4.992-0.057c0.953-0.743,0.304-2.811-0.536-3.575
					c-0.773-0.706-1.366-0.924-2.641-1.297c-1.63-0.478-2.775-0.35-3.487-0.328c-0.711,0.021-1.98,0.535-1.98,0.535
					s1.93-1.613,2.865-1.982s4.518-1.417,4.518-1.417l-0.444-2.99c-0.034-0.234,0.278-0.425,0.61-0.37
					C22.726,7.976,24.37,9.48,24.37,9.48l0.875,0.836c0,0,4.038,1.072,7.87,2.003c0.104,1.287-1.035,3.503-1.035,3.503l4.354,0.43
					C35.76,10.374,28.643,5.748,19.957,5.748z M15.788,15.136c0.615,0,1.113,0.345,1.113,0.77s-0.498,0.77-1.113,0.77
					c-0.616,0-1.115-0.345-1.115-0.77S15.172,15.136,15.788,15.136z M19.957,3.385C8.935,3.385,0,9.555,0,17.166
					s8.935,13.779,19.957,13.779c11.021,0,19.956-6.169,19.956-13.779S30.979,3.385,19.957,3.385z M19.957,29.843
					c-10.141,0-18.361-5.676-18.361-12.678S9.816,4.488,19.957,4.488c10.14,0,18.359,5.676,18.359,12.678
					S30.097,29.843,19.957,29.843z"/>
			</g>
		</g>
	</g>
</g>
</svg>
