<?xml version="1.0" encoding="utf-8"?>
<!-- Generator: Adobe Illustrator 15.0.0, SVG Export Plug-In . SVG Version: 6.00 Build 0)  -->
<!DOCTYPE svg PUBLIC "-//W3C//DTD SVG 1.1//EN" "http://www.w3.org/Graphics/SVG/1.1/DTD/svg11.dtd">
<svg version="1.1" id="レイヤー_1" xmlns="http://www.w3.org/2000/svg" xmlns:xlink="http://www.w3.org/1999/xlink" x="0px"
	 y="0px" width="39.913px" height="42.534px" viewBox="0 0 39.913 42.534" enable-background="new 0 0 39.913 42.534"
	 xml:space="preserve">
<g>
	<ellipse fill="#FF1E00" cx="19.956" cy="28.754" rx="19.956" ry="13.78"/>
	<ellipse fill="#FFFFFF" cx="19.956" cy="27.061" rx="19.956" ry="13.78"/>
	<ellipse fill="#FF1E00" cx="19.956" cy="25.368" rx="19.956" ry="13.78"/>
	<ellipse fill="#FFFFFF" cx="19.956" cy="23.676" rx="19.956" ry="13.78"/>
	<ellipse fill="#FF1E00" cx="19.956" cy="21.983" rx="19.956" ry="13.78"/>
	<ellipse fill="#FFFFFF" cx="19.956" cy="20.171" rx="19.956" ry="13.78"/>
	<ellipse fill="#FF1E00" cx="19.956" cy="18.343" rx="19.956" ry="13.78"/>
	<ellipse fill="#FFFFFF" cx="19.956" cy="16.649" rx="19.956" ry="13.78"/>
	<ellipse fill="#FF1E00" cx="19.956" cy="14.919" rx="19.956" ry="13.78"/>
	<ellipse fill="#FFFFFF" cx="19.956" cy="13.78" rx="19.956" ry="13.78"/>
	<g>
		<g>
			<g>
				<path fill="#FF1E00" d="M19.956,2.362c-9.132,0-16.535,5.112-16.535,11.418s7.403,11.418,16.535,11.418
					c1.877,0,3.678-0.219,5.359-0.616c-0.884-3.546-4.391-5.176-4.391-5.176c-1.285-0.71-3.975-1.294-5.818-1.518
					c-3.528-0.428-6.344-0.765-7.057-2.18c-1.247-0.399-1.113-1.015-1.113-1.015s0.579-0.216,1.247-0.216
					c1.724-0.34,3.251-2.054,3.251-2.054l0.164-0.328c0,0,0.307,0.311,0.495,0.935c0.091,0.301,0.211,0.832,0.392,1.111
					c0.558,0.854,1.621,0.938,3.611,1.481c1.981,0.541,3.713,0.94,4.992-0.058c0.953-0.742,0.304-2.811-0.536-3.575
					c-0.773-0.706-1.366-0.924-2.641-1.297c-1.63-0.478-2.775-0.349-3.487-0.327c-0.711,0.021-1.98,0.534-1.98,0.534
					s1.93-1.613,2.865-1.982s4.518-1.417,4.518-1.417l-0.444-2.99c-0.034-0.234,0.278-0.424,0.61-0.369
					c2.732,0.449,4.377,1.953,4.377,1.953l0.875,0.835c0,0,4.039,1.073,7.87,2.002c0.104,1.287-1.036,3.504-1.036,3.504l4.355,0.429
					C35.76,6.988,28.644,2.362,19.956,2.362z M15.788,11.751c0.615,0,1.113,0.344,1.113,0.769s-0.498,0.77-1.113,0.77
					c-0.616,0-1.115-0.345-1.115-0.77S15.172,11.751,15.788,11.751z M19.956,0C8.935,0,0,6.169,0,13.78s8.935,13.78,19.956,13.78
					c11.022,0,19.957-6.17,19.957-13.78S30.979,0,19.956,0z M19.956,26.458c-10.14,0-18.36-5.676-18.36-12.678
					c0-7.001,8.22-12.678,18.36-12.678c10.141,0,18.361,5.676,18.361,12.678C38.317,20.782,30.097,26.458,19.956,26.458z"/>
			</g>
		</g>
	</g>
</g>
</svg>
