<?xml version="1.0" encoding="utf-8"?>
<!-- Generator: Adobe Illustrator 15.0.0, SVG Export Plug-In . SVG Version: 6.00 Build 0)  -->
<!DOCTYPE svg PUBLIC "-//W3C//DTD SVG 1.1//EN" "http://www.w3.org/Graphics/SVG/1.1/DTD/svg11.dtd">
<svg version="1.1" id="レイヤー_1" xmlns="http://www.w3.org/2000/svg" xmlns:xlink="http://www.w3.org/1999/xlink" x="0px"
	 y="0px" width="39.913px" height="42.534px" viewBox="0 0 39.913 42.534" enable-background="new 0 0 39.913 42.534"
	 xml:space="preserve">
<g>
	<ellipse fill="#FF1E00" cx="19.957" cy="21.836" rx="19.957" ry="13.78"/>
	<ellipse fill="#FFFFFF" cx="19.957" cy="20.697" rx="19.957" ry="13.78"/>
	<g>
		<g>
			<g>
				<path fill="#FF1E00" d="M19.957,9.28c-9.133,0-16.536,5.112-16.536,11.417c0,6.307,7.403,11.418,16.536,11.418
					c1.876,0,3.677-0.219,5.358-0.616c-0.884-3.545-4.391-5.176-4.391-5.176c-1.284-0.71-3.974-1.294-5.818-1.517
					c-3.528-0.428-6.344-0.766-7.057-2.18c-1.247-0.4-1.113-1.016-1.113-1.016s0.579-0.215,1.247-0.215
					c1.724-0.34,3.251-2.055,3.251-2.055l0.164-0.328c0,0,0.306,0.312,0.495,0.935c0.092,0.301,0.211,0.833,0.393,1.111
					c0.557,0.854,1.62,0.938,3.61,1.481c1.981,0.541,3.714,0.94,4.993-0.057c0.952-0.743,0.303-2.811-0.537-3.576
					c-0.773-0.705-1.366-0.923-2.641-1.296c-1.63-0.478-2.775-0.35-3.486-0.328c-0.712,0.021-1.981,0.534-1.981,0.534
					s1.931-1.613,2.865-1.982c0.936-0.369,4.518-1.416,4.518-1.416l-0.444-2.99c-0.034-0.234,0.278-0.425,0.61-0.37
					c2.732,0.449,4.377,1.953,4.377,1.953l0.875,0.837c0,0,4.039,1.072,7.87,2.002c0.104,1.287-1.035,3.503-1.035,3.503l4.354,0.43
					C35.76,13.906,28.643,9.28,19.957,9.28z M15.788,18.668c0.615,0,1.113,0.345,1.113,0.77s-0.498,0.769-1.113,0.769
					c-0.616,0-1.114-0.344-1.114-0.769S15.172,18.668,15.788,18.668z M19.957,6.917C8.935,6.917,0,13.087,0,20.697
					c0,7.611,8.935,13.78,19.957,13.78c11.021,0,19.956-6.169,19.956-13.78C39.913,13.087,30.979,6.917,19.957,6.917z
					 M19.957,33.375c-10.141,0-18.36-5.676-18.36-12.678c0-7.001,8.22-12.677,18.36-12.677c10.14,0,18.36,5.676,18.36,12.677
					C38.317,27.699,30.097,33.375,19.957,33.375z"/>
			</g>
		</g>
	</g>
</g>
</svg>
